<svg width="339" height="204" viewBox="0 0 339 204" fill="none" xmlns="http://www.w3.org/2000/svg">
<path d="M228.462 153.861C215.918 173.415 196.675 188.502 173.808 196.714C150.941 204.925 125.769 205.786 102.313 199.161C78.8562 192.535 58.4688 178.804 44.4069 160.161C30.345 141.518 23.4199 119.039 24.7378 96.3141C26.0556 73.5894 35.5405 51.9301 51.6772 34.7961C67.814 17.662 89.6717 6.04167 113.759 1.79119C137.846 -2.45928 162.773 0.905342 184.558 11.3476C206.343 21.7899 223.73 38.7074 233.94 59.3978L217.623 66.335C209.084 49.0309 194.543 34.8822 176.323 26.1489C158.103 17.4157 137.256 14.6017 117.111 18.1566C96.9659 21.7114 78.6856 31.4299 65.1898 45.7598C51.6941 60.0896 43.7616 78.204 42.6594 97.2095C41.5572 116.215 47.3489 135.015 59.1094 150.607C70.8699 166.199 87.9206 177.682 107.538 183.224C127.156 188.765 148.208 188.045 167.332 181.177C186.457 174.31 202.55 161.692 213.041 145.338L228.462 153.861Z" fill="white"/>
<path d="M13.3865 61.6286C9.60677 63.5332 8.50436 66.1997 8.45186 73.1108V76.9744L5.72207 77.3554C3.72722 77.6274 2.57231 78.1716 1.52238 79.3144L0 80.8381L0.157488 105.707L0.314976 130.522L1.73237 131.773C2.51981 132.481 4.19968 133.188 5.66957 133.406C7.03447 133.623 8.34687 134.059 8.55685 134.385C8.76684 134.766 8.97682 137.269 8.97682 139.99C8.97682 144.779 9.02932 144.997 10.7092 146.956C11.8116 148.316 13.0715 149.133 14.4889 149.513C15.6438 149.786 21.7334 149.949 28.0329 149.894L39.4245 149.84V147.173V144.561H27.6129H15.7488L14.4889 143.201C13.3865 142.058 13.1765 141.405 13.1765 138.358C13.1765 133.515 13.3865 133.134 16.0638 133.134C17.7437 133.134 18.7936 132.753 19.9485 131.719L21.5759 130.304V105.163V79.9674L20.3685 78.8246C19.4235 77.8995 18.4786 77.6274 16.4838 77.6274C13.3865 77.6274 13.1765 77.3554 13.1765 72.8387C13.1765 70.7164 13.4915 69.1927 14.2264 67.9411L15.2763 66.1997L26.143 66.0909C32.1801 66.0364 37.5872 65.982 38.2696 65.982C39.3195 65.982 39.4245 65.7099 39.4245 63.37V60.7579H27.2454C17.2712 60.7579 14.6989 60.9212 13.3865 61.6286Z" fill="white"/>
<path d="M214.682 100.961C212.516 100.961 210.566 100.508 208.833 99.6027C207.12 98.6772 205.772 97.3974 204.787 95.763C203.803 94.1287 203.31 92.2778 203.31 90.2103C203.31 88.1428 203.803 86.2918 204.787 84.6575C205.772 83.0232 207.12 81.7532 208.833 80.8474C210.566 79.9219 212.516 79.4592 214.682 79.4592C216.572 79.4592 218.275 79.7939 219.791 80.4634C221.307 81.1329 222.568 82.0978 223.572 83.3579L219.85 86.725C218.511 85.1104 216.887 84.3031 214.977 84.3031C213.855 84.3031 212.85 84.5492 211.964 85.0415C211.098 85.5338 210.419 86.2328 209.926 87.1385C209.454 88.0246 209.217 89.0485 209.217 90.2103C209.217 91.372 209.454 92.4058 209.926 93.3116C210.419 94.1976 211.098 94.8868 211.964 95.3791C212.85 95.8713 213.855 96.1175 214.977 96.1175C216.887 96.1175 218.511 95.3101 219.85 93.6955L223.572 97.0626C222.568 98.3228 221.307 99.2877 219.791 99.9571C218.275 100.627 216.572 100.961 214.682 100.961ZM233.457 100.814C231.744 100.814 230.198 100.459 228.82 99.7504C227.441 99.0415 226.358 98.057 225.571 96.7968C224.803 95.5366 224.419 94.109 224.419 92.5141C224.419 90.9388 224.803 89.5211 225.571 88.2609C226.358 87.0007 227.432 86.026 228.79 85.3369C230.169 84.628 231.724 84.2736 233.457 84.2736C235.19 84.2736 236.745 84.628 238.124 85.3369C239.502 86.026 240.575 87.0007 241.343 88.2609C242.111 89.5014 242.495 90.9191 242.495 92.5141C242.495 94.109 242.111 95.5366 241.343 96.7968C240.575 98.057 239.502 99.0415 238.124 99.7504C236.745 100.459 235.19 100.814 233.457 100.814ZM233.457 96.3538C234.441 96.3538 235.249 96.019 235.879 95.3495C236.509 94.6604 236.824 93.7152 236.824 92.5141C236.824 91.3326 236.509 90.4072 235.879 89.7377C235.249 89.0682 234.441 88.7335 233.457 88.7335C232.472 88.7335 231.665 89.0682 231.035 89.7377C230.405 90.4072 230.09 91.3326 230.09 92.5141C230.09 93.7152 230.405 94.6604 231.035 95.3495C231.665 96.019 232.472 96.3538 233.457 96.3538ZM265.947 84.2736C267.916 84.2736 269.481 84.8643 270.643 86.0457C271.825 87.2272 272.415 89.0092 272.415 91.3917V100.548H266.803V92.3073C266.803 91.185 266.587 90.358 266.154 89.8263C265.74 89.2947 265.149 89.0288 264.382 89.0288C263.535 89.0288 262.855 89.3242 262.344 89.9149C261.832 90.5056 261.576 91.4016 261.576 92.6027V100.548H255.964V92.3073C255.964 90.1217 255.156 89.0288 253.542 89.0288C252.675 89.0288 251.986 89.3242 251.474 89.9149C250.962 90.5056 250.706 91.4016 250.706 92.6027V100.548H245.095V84.5394H250.441V86.2229C251.031 85.5731 251.73 85.0907 252.538 84.7757C253.365 84.4409 254.261 84.2736 255.225 84.2736C256.348 84.2736 257.352 84.4803 258.238 84.8938C259.124 85.3073 259.843 85.9374 260.394 86.7841C261.024 85.9768 261.822 85.3565 262.787 84.9234C263.751 84.4902 264.805 84.2736 265.947 84.2736ZM293.112 84.5394V100.548H287.766V98.9529C286.723 100.193 285.147 100.814 283.04 100.814C281.583 100.814 280.254 100.479 279.053 99.8095C277.872 99.1203 276.926 98.1456 276.218 96.8854C275.528 95.6252 275.184 94.1681 275.184 92.5141C275.184 90.8601 275.528 89.4128 276.218 88.1723C276.926 86.9121 277.872 85.9473 279.053 85.2778C280.254 84.6083 281.583 84.2736 283.04 84.2736C284.931 84.2736 286.417 84.8249 287.5 85.9276V84.5394H293.112ZM284.222 96.3538C285.206 96.3538 286.014 96.019 286.644 95.3495C287.274 94.6604 287.589 93.7152 287.589 92.5141C287.589 91.3326 287.274 90.4072 286.644 89.7377C286.014 89.0682 285.206 88.7335 284.222 88.7335C283.237 88.7335 282.43 89.0682 281.8 89.7377C281.17 90.4072 280.855 91.3326 280.855 92.5141C280.855 93.7152 281.17 94.6604 281.8 95.3495C282.43 96.019 283.237 96.3538 284.222 96.3538ZM302.957 100.814C300.988 100.814 299.452 100.312 298.349 99.3073C297.266 98.2834 296.725 96.8263 296.725 94.936V78.6322H302.337V94.6407C302.337 95.2314 302.484 95.6843 302.78 95.9993C303.095 96.3144 303.528 96.4719 304.079 96.4719C304.532 96.4719 304.955 96.3734 305.349 96.1765L305.586 100.4C304.739 100.676 303.863 100.814 302.957 100.814Z" fill="white"/>
<path d="M225.122 132L220.84 125.591L216.616 132H209.941L217.473 121.544L210.266 111.325H216.852L220.987 117.291L225.063 111.325H231.384L224.177 121.308L231.857 132H225.122ZM243.362 115.726C244.819 115.726 246.138 116.07 247.32 116.76C248.521 117.429 249.466 118.394 250.155 119.654C250.864 120.895 251.219 122.342 251.219 123.996C251.219 125.65 250.864 127.107 250.155 128.367C249.466 129.608 248.521 130.573 247.32 131.262C246.138 131.931 244.819 132.266 243.362 132.266C241.491 132.266 240.005 131.705 238.902 130.582V137.73H233.29V115.992H238.636V117.587C239.68 116.346 241.255 115.726 243.362 115.726ZM242.181 127.806C243.165 127.806 243.972 127.471 244.602 126.802C245.233 126.113 245.548 125.177 245.548 123.996C245.548 122.814 245.233 121.889 244.602 121.22C243.972 120.53 243.165 120.186 242.181 120.186C241.196 120.186 240.389 120.53 239.759 121.22C239.128 121.889 238.813 122.814 238.813 123.996C238.813 125.177 239.128 126.113 239.759 126.802C240.389 127.471 241.196 127.806 242.181 127.806ZM259.173 117.911C259.744 117.183 260.482 116.641 261.388 116.287C262.314 115.913 263.367 115.726 264.548 115.726V120.776C264.036 120.717 263.613 120.688 263.278 120.688C262.077 120.688 261.132 121.013 260.443 121.663C259.773 122.312 259.439 123.307 259.439 124.646V132H253.827V115.992H259.173V117.911ZM275.285 127.983C276.053 127.983 276.713 127.875 277.264 127.658C277.835 127.442 278.406 127.087 278.977 126.595L281.901 129.667C280.385 131.4 278.121 132.266 275.108 132.266C273.238 132.266 271.593 131.912 270.176 131.203C268.758 130.494 267.655 129.509 266.868 128.249C266.1 126.989 265.716 125.561 265.716 123.966C265.716 122.391 266.1 120.983 266.868 119.743C267.636 118.483 268.689 117.498 270.028 116.789C271.387 116.08 272.903 115.726 274.577 115.726C276.132 115.726 277.55 116.051 278.83 116.701C280.129 117.331 281.163 118.266 281.931 119.506C282.699 120.727 283.083 122.184 283.083 123.878L271.653 126.063C272.263 127.343 273.474 127.983 275.285 127.983ZM274.606 119.713C273.641 119.713 272.854 120.018 272.243 120.629C271.633 121.22 271.288 122.076 271.209 123.198L277.707 121.928C277.51 121.259 277.136 120.727 276.585 120.333C276.034 119.92 275.374 119.713 274.606 119.713ZM291.489 132.266C290.15 132.266 288.831 132.118 287.531 131.823C286.232 131.508 285.188 131.104 284.4 130.612L286.084 126.772C286.812 127.225 287.679 127.589 288.683 127.865C289.687 128.121 290.682 128.249 291.666 128.249C292.572 128.249 293.212 128.16 293.586 127.983C293.98 127.786 294.177 127.511 294.177 127.156C294.177 126.802 293.94 126.556 293.468 126.418C293.015 126.26 292.286 126.113 291.282 125.975C290.002 125.817 288.909 125.611 288.004 125.355C287.118 125.099 286.35 124.626 285.7 123.937C285.05 123.248 284.725 122.283 284.725 121.042C284.725 120.018 285.03 119.113 285.641 118.325C286.251 117.518 287.137 116.888 288.299 116.435C289.48 115.962 290.888 115.726 292.523 115.726C293.684 115.726 294.836 115.844 295.978 116.08C297.12 116.317 298.075 116.651 298.843 117.084L297.16 120.895C295.742 120.107 294.206 119.713 292.552 119.713C291.666 119.713 291.016 119.821 290.603 120.038C290.189 120.235 289.983 120.501 289.983 120.836C289.983 121.21 290.209 121.475 290.662 121.633C291.115 121.771 291.863 121.919 292.907 122.076C294.226 122.273 295.319 122.499 296.185 122.755C297.051 123.011 297.8 123.484 298.43 124.173C299.08 124.843 299.405 125.788 299.405 127.009C299.405 128.013 299.099 128.919 298.489 129.726C297.878 130.513 296.973 131.134 295.772 131.587C294.59 132.04 293.163 132.266 291.489 132.266ZM307.641 132.266C306.302 132.266 304.983 132.118 303.684 131.823C302.384 131.508 301.34 131.104 300.553 130.612L302.236 126.772C302.965 127.225 303.831 127.589 304.835 127.865C305.84 128.121 306.834 128.249 307.819 128.249C308.724 128.249 309.364 128.16 309.738 127.983C310.132 127.786 310.329 127.511 310.329 127.156C310.329 126.802 310.093 126.556 309.62 126.418C309.167 126.26 308.439 126.113 307.435 125.975C306.155 125.817 305.062 125.611 304.156 125.355C303.27 125.099 302.502 124.626 301.852 123.937C301.203 123.248 300.878 122.283 300.878 121.042C300.878 120.018 301.183 119.113 301.793 118.325C302.404 117.518 303.29 116.888 304.451 116.435C305.633 115.962 307.041 115.726 308.675 115.726C309.837 115.726 310.989 115.844 312.131 116.08C313.273 116.317 314.228 116.651 314.996 117.084L313.312 120.895C311.895 120.107 310.359 119.713 308.705 119.713C307.819 119.713 307.169 119.821 306.755 120.038C306.342 120.235 306.135 120.501 306.135 120.836C306.135 121.21 306.361 121.475 306.814 121.633C307.267 121.771 308.015 121.919 309.059 122.076C310.378 122.273 311.471 122.499 312.338 122.755C313.204 123.011 313.952 123.484 314.582 124.173C315.232 124.843 315.557 125.788 315.557 127.009C315.557 128.013 315.252 128.919 314.641 129.726C314.031 130.513 313.125 131.134 311.924 131.587C310.743 132.04 309.315 132.266 307.641 132.266Z" fill="white"/>
<g clip-path="url(#clip0_147_3)">
<path d="M173.653 50.6368C174.167 50.9071 174.664 51.1889 175.153 51.5046C175.153 52.3985 175.153 52.3985 174.83 52.8141C174.684 52.9535 174.539 53.0929 174.388 53.2366C173.801 53.8042 173.261 54.3888 172.739 55.021C171.765 56.1934 170.703 57.2674 169.641 58.3533C168.775 59.2452 167.955 60.1573 167.161 61.1186C166.362 62.0561 165.488 62.9191 164.629 63.7965C163.774 64.677 162.965 65.5812 162.18 66.5303C161.653 67.157 161.075 67.724 160.496 68.2977C159.92 68.9544 159.693 69.3823 159.729 70.2777C159.95 71.0684 160.122 71.3768 160.775 71.8422C161.489 71.9522 162.027 71.9989 162.663 71.6008C163.071 71.2555 163.452 70.8928 163.833 70.5152C164.116 70.2463 164.4 69.9777 164.684 69.7094C164.891 69.5109 164.891 69.5109 165.102 69.3084C165.632 68.8083 166.185 68.3409 166.743 67.8752C167.492 67.2439 168.217 66.5952 168.93 65.9197C169.642 65.2441 170.367 64.5955 171.116 63.9641C172.071 63.1585 173.005 62.3318 173.932 61.4918C174.068 61.3693 174.203 61.2467 174.342 61.1205C174.618 60.8711 174.893 60.6216 175.168 60.372C175.842 59.7617 176.516 59.1521 177.192 58.5445C177.31 58.4372 177.428 58.33 177.55 58.2195C178.37 57.4832 179.199 56.8595 180.089 56.1978C181.009 57.1566 181.93 58.1154 182.878 59.1032C182.475 60.1528 182.194 60.5751 181.47 61.3661C180.744 62.1725 180.044 62.9913 179.378 63.8524C178.609 64.843 177.82 65.8111 177.017 66.7717C176.84 66.9841 176.84 66.9841 176.659 67.2008C176.419 67.4882 176.178 67.7756 175.938 68.063C174.445 69.8525 172.972 71.6553 171.539 73.4974C171.06 74.0971 170.562 74.6744 170.056 75.2504C168.647 76.7733 168.647 76.7733 167.95 78.7005C168.019 79.4458 168.019 79.4458 168.433 79.9716C168.997 80.3838 169.314 80.5408 170.003 80.5583C170.905 80.0802 171.618 79.4177 172.35 78.7005C172.469 78.5845 172.589 78.4685 172.712 78.349C173.764 77.3223 174.784 76.2639 175.792 75.1912C176.411 74.5365 177.042 73.9129 177.71 73.3132C178.62 72.4949 179.462 71.6179 180.303 70.7247C181.273 69.6951 182.257 68.7107 183.307 67.7695C184.054 67.0793 184.752 66.3384 185.454 65.5984C185.599 65.4456 185.745 65.2927 185.895 65.1353C186.249 64.764 186.603 64.3923 186.956 64.02C188.041 64.5299 188.344 65.267 188.839 66.3719C189.504 68.3414 189.305 70.0291 188.458 71.898C187.746 73.2763 186.871 74.4679 185.883 75.6415C185.664 75.9092 185.447 76.1773 185.229 76.4455C184.027 77.9187 182.805 79.3439 181.465 80.6831C181.048 81.1225 180.662 81.5665 180.276 82.0345C176.041 87.118 171.449 91.5463 164.973 93.0178C162.069 93.23 159.473 92.8509 156.698 91.9563C155.862 92.8056 155.04 93.656 154.283 94.5823C153.621 95.3857 152.914 96.1296 152.191 96.873C151.354 97.7337 150.558 98.6083 149.796 99.5418C149.196 100.242 148.55 100.893 147.909 101.552C147.349 102.13 146.813 102.716 146.303 103.34C145.552 104.258 144.732 105.095 143.909 105.941C143.189 106.686 142.513 107.453 141.856 108.258C141.255 108.958 140.61 109.609 139.968 110.268C139.409 110.846 138.873 111.432 138.363 112.056C137.716 112.847 137.02 113.576 136.311 114.305C135.606 115.03 134.914 115.753 134.272 116.54C133.526 117.454 132.71 118.285 131.891 119.127C131.171 119.871 130.496 120.639 129.838 121.444C129.238 122.144 128.592 122.795 127.951 123.454C127.392 124.032 126.856 124.618 126.345 125.242C125.698 126.033 125.003 126.761 124.293 127.491C123.588 128.216 122.897 128.939 122.255 129.726C121.509 130.64 120.692 131.471 119.874 132.313C119.154 133.057 118.478 133.825 117.821 134.63C117.221 135.329 116.575 135.981 115.934 136.64C115.374 137.218 114.838 137.803 114.328 138.428C113.681 139.219 112.985 139.947 112.276 140.677C111.571 141.402 110.879 142.125 110.237 142.912C109.595 143.699 108.903 144.422 108.199 145.147C107.503 145.863 106.819 146.575 106.187 147.354C105.929 147.662 105.669 147.97 105.409 148.276C105.303 148.401 105.198 148.527 105.089 148.656C102.923 151.19 102.923 151.19 101.823 151.645C101.237 151.673 100.818 151.588 100.258 151.405C99.9547 151.318 99.9547 151.318 99.6448 151.23C97.1465 150.34 95.0377 148.239 93.8205 145.817C93.2246 144.551 92.7966 143.455 92.9621 142.018C93.2372 141.308 93.5624 140.919 94.129 140.44C94.9997 139.674 95.7964 138.85 96.596 138.006C97.1509 137.423 97.7136 136.864 98.3137 136.333C99.0732 135.659 99.7724 134.935 100.473 134.196C101.295 133.329 102.13 132.506 103.021 131.717C103.745 131.04 104.42 130.313 105.103 129.593C105.818 128.843 106.555 128.14 107.328 127.455C107.891 126.931 108.42 126.375 108.95 125.815C109.605 125.123 110.264 124.447 110.975 123.818C111.734 123.144 112.434 122.419 113.134 121.68C113.961 120.809 114.8 119.98 115.697 119.186C116.26 118.662 116.789 118.105 117.319 117.546C117.974 116.854 118.633 116.178 119.344 115.548C120.104 114.874 120.803 114.15 121.504 113.411C122.33 112.54 123.17 111.711 124.066 110.917C124.629 110.393 125.158 109.836 125.688 109.277C126.343 108.585 127.002 107.909 127.713 107.279C128.473 106.605 129.172 105.881 129.873 105.142C130.695 104.276 131.53 103.452 132.421 102.663C133.145 101.986 133.82 101.26 134.503 100.539C135.218 99.7894 135.954 99.0862 136.727 98.4017C137.29 97.8776 137.819 97.3208 138.349 96.7613C139.005 96.0696 139.663 95.3937 140.375 94.7639C141.134 94.0898 141.833 93.3655 142.534 92.6267C143.361 91.7554 144.2 90.9264 145.097 90.1325C145.66 89.6085 146.189 89.0518 146.719 88.4922C147.542 87.6237 148.38 86.8001 149.281 86.0198C149.669 85.6732 149.669 85.6732 150.045 85.0281C149.873 84.4551 149.873 84.4551 149.562 83.8547C148.858 82.3375 148.448 80.9027 148.328 79.2173C148.307 78.936 148.307 78.936 148.285 78.649C148.078 73.2566 150.595 68.7204 154.002 64.8721C155.23 63.5098 156.521 62.2245 157.837 60.9543C159.24 59.5969 160.592 58.1905 161.935 56.7695C163.387 55.2402 164.881 53.8226 166.569 52.5801C166.698 52.4843 166.828 52.3886 166.961 52.2899C168.975 50.8224 171.177 49.6802 173.653 50.6368Z" fill="white"/>
<path d="M108.319 61.7292C108.782 62.1172 109.242 62.5095 109.701 62.9026C109.85 63.0236 109.999 63.1446 110.153 63.2692C113.518 66.0661 116.473 71.204 116.997 75.6415C117.206 78.6544 117.224 81.6824 115.761 84.3856C115.426 84.9911 115.426 84.9911 115.653 85.4704C115.924 85.9218 116.201 86.2645 116.563 86.6388C116.688 86.769 116.814 86.8993 116.943 87.0335C117.076 87.1692 117.209 87.3048 117.346 87.4446C117.482 87.5854 117.619 87.7263 117.76 87.8714C118.551 88.6815 119.357 89.4591 120.204 90.205C120.924 90.8751 121.593 91.5982 122.272 92.3134C122.856 92.927 123.446 93.5191 124.079 94.0794C124.955 94.8549 125.752 95.7035 126.559 96.5552C127.309 97.3432 128.082 98.0859 128.902 98.7946C129.229 99.108 129.229 99.108 129.658 99.7784C126.914 102.675 126.914 102.675 125.59 103.84C124.791 104.584 124.055 105.399 123.31 106.202C122.791 106.707 122.791 106.707 122.147 106.93C121.312 106.081 120.49 105.23 119.733 104.304C119.071 103.501 118.364 102.757 117.641 102.013C116.804 101.153 116.008 100.278 115.246 99.3445C114.646 98.6452 114 97.9938 113.359 97.3353C112.791 96.7483 112.246 96.1518 111.726 95.5182C111.127 94.7967 110.517 94.0889 109.889 93.395C109.715 93.2011 109.542 93.0072 109.364 92.8075C108.881 92.3446 108.881 92.3446 108.32 92.4251C108.138 92.4916 107.957 92.5582 107.769 92.6268C107.564 92.6959 107.358 92.765 107.147 92.8363C106.713 92.9944 106.279 93.1527 105.846 93.3112C101.791 94.6154 97.4559 93.4887 93.792 91.5372C92.6388 90.8927 91.6043 90.1507 90.6016 89.2744C90.4922 89.1788 90.3828 89.0832 90.27 88.9848C85.395 84.6665 82.0184 78.5904 80.0863 72.2892C80.0378 72.1338 79.9894 71.9784 79.9394 71.8183C78.8411 68.1663 78.4756 63.3155 80.171 59.8287C80.4795 59.2699 80.8068 58.7388 81.1593 58.2093C81.2921 58.0065 81.4249 57.8036 81.5617 57.5947C88.688 49.7364 101.739 56.337 108.319 61.7292Z" fill="white"/>
<path d="M142.963 112.964C144.318 113.947 145.462 115.072 146.611 116.303C147.666 117.426 148.726 118.515 149.871 119.539C150.422 120.041 150.928 120.576 151.44 121.122C152.095 121.814 152.754 122.489 153.465 123.119C154.346 123.901 155.15 124.756 155.963 125.613C156.677 126.363 157.414 127.066 158.187 127.75C158.859 128.376 159.485 129.048 160.117 129.716C160.672 130.299 161.235 130.857 161.834 131.388C162.716 132.17 163.519 133.025 164.332 133.882C165.047 134.632 165.783 135.335 166.556 136.02C167.227 136.644 167.852 137.315 168.483 137.982C169.068 138.597 169.665 139.181 170.298 139.741C170.558 139.978 170.817 140.215 171.076 140.454C171.189 140.557 171.302 140.661 171.419 140.768C172.034 141.412 172.232 141.963 172.283 142.842C172.144 145.31 170.771 147.051 169.144 148.723C168.907 148.973 168.907 148.973 168.666 149.228C167.295 150.595 165.878 151.397 163.967 151.558C162.658 151.482 162.063 150.81 161.204 149.84C160.969 149.58 160.733 149.32 160.497 149.061C159.972 148.479 159.45 147.893 158.931 147.306C158.348 146.65 157.752 146.012 157.14 145.384C156.582 144.812 156.053 144.23 155.544 143.61C154.924 142.857 154.263 142.156 153.586 141.459C152.922 140.777 152.273 140.091 151.668 139.35C151.021 138.559 150.325 137.831 149.616 137.101C148.784 136.245 147.993 135.376 147.235 134.447C146.586 133.693 145.888 132.991 145.196 132.279C144.476 131.535 143.801 130.768 143.144 129.963C142.64 129.376 142.106 128.825 141.568 128.273C140.776 127.459 140.026 126.624 139.305 125.741C138.645 124.978 137.937 124.266 137.225 123.555C136.518 122.835 135.975 122.109 135.452 121.233C136.653 119.81 137.9 118.453 139.194 117.121C139.785 116.497 140.335 115.849 140.881 115.183C141.54 114.407 142.254 113.689 142.963 112.964Z" fill="white"/>
</g>
<defs>
<clipPath id="clip0_147_3">
<rect width="109.874" height="114.427" fill="white" transform="translate(79.2279 43.6824)"/>
</clipPath>
</defs>
</svg>
